<svg
  xmlns="http://www.w3.org/2000/svg"
  width="200"
  height="200"
  viewBox="0 0 200 200"
  role="img"
  aria-labelledby="logo-title logo-description">
  <title id="logo-title">时奕智能教务系统</title>
  <desc id="logo-description">太阳从打开的书本上升起</desc>

  <rect x="4" y="4" width="192" height="192" rx="44" fill="#006b4f"/>

  <g fill="none" stroke="#ffc21a" stroke-width="8" stroke-linecap="round">
    <path d="M100 26v12"/>
    <path d="m64 36 7 11"/>
    <path d="m136 36-7 11"/>
    <path d="m42 63 12 6"/>
    <path d="m158 63-12 6"/>
  </g>
  <circle cx="100" cy="79" r="26" fill="#ffc21a"/>

  <path
    d="M22 100c27-7 55-2 75 15v56c-19-15-46-22-75-16z"
    fill="#fff"/>
  <path
    d="M178 100c-27-7-55-2-75 15v56c19-15 46-22 75-16z"
    fill="#fff"/>
  <path
    d="M22 100c27-7 55-2 75 15v56c-19-15-46-22-75-16zm156 0c-27-7-55-2-75 15v56c19-15 46-22 75-16z"
    fill="none"
    stroke="#006b4f"
    stroke-width="5"
    stroke-linejoin="round"/>
  <path d="M100 116v55" fill="none" stroke="#006b4f" stroke-width="5" stroke-linecap="round"/>
</svg>
